<svg width="22" height="22" viewBox="0 0 22 22" fill="none" xmlns="http://www.w3.org/2000/svg">
  <path d="M5.134 1.993a.915.915 0 0 0-1.37-.085L2.367 3.305c-.653.654-.893 1.578-.608 2.39a23.717 23.717 0 0 0 5.627 8.92 23.717 23.717 0 0 0 8.92 5.627c.812.285 1.736.045 2.39-.608l1.396-1.395a.916.916 0 0 0-.086-1.37l-3.114-2.422a.916.916 0 0 0-.783-.165l-2.956.738a2.356 2.356 0 0 1-2.237-.62L7.6 11.085a2.355 2.355 0 0 1-.62-2.237l.74-2.956a.915.915 0 0 0-.166-.783L5.134 1.993ZM2.744.89a2.356 2.356 0 0 1 3.526.22l2.422 3.113c.444.571.6 1.315.425 2.017L8.38 9.197a.915.915 0 0 0 .24.868l3.317 3.317a.915.915 0 0 0 .87.24l2.954-.739a2.354 2.354 0 0 1 2.017.426l3.113 2.421a2.355 2.355 0 0 1 .22 3.525l-1.395 1.396c-1 .999-2.493 1.438-3.884.948a25.156 25.156 0 0 1-9.464-5.967A25.156 25.156 0 0 1 .401 6.17c-.49-1.39-.05-2.885.949-3.884L2.745.89Z" fill="#454C5C"/>
</svg>