<svg width="12" height="20" viewBox="0 0 12 20" fill="none" xmlns="http://www.w3.org/2000/svg">
  <path fill-rule="evenodd" clip-rule="evenodd" d="M6 1.6a3.6 3.6 0 1 0 0 7.2 3.6 3.6 0 0 0 0-7.2ZM1.2 5.2a4.8 4.8 0 1 1 5.4 4.762V16.6a.6.6 0 1 1-1.2 0V9.964a4.8 4.8 0 0 1-4.2-4.766V5.2Zm2.992 10.289a.6.6 0 0 1-.494.69c-.854.141-1.536.354-1.986.591-.165.08-.315.187-.444.318a.363.363 0 0 0-.068.108v.004l.002.01a.174.174 0 0 0 .02.039.74.74 0 0 0 .174.18c.198.156.522.324.975.474.901.3 2.184.497 3.63.497 1.444 0 2.727-.196 3.628-.497.454-.151.778-.318.976-.474a.744.744 0 0 0 .175-.18.18.18 0 0 0 .018-.04l.002-.01v-.004a.362.362 0 0 0-.068-.108 1.58 1.58 0 0 0-.444-.317c-.451-.237-1.132-.45-1.986-.591a.6.6 0 1 1 .197-1.184c.924.153 1.742.394 2.348.713C11.4 16 12 16.48 12 17.2c0 .511-.312.902-.652 1.172-.349.274-.817.496-1.34.67-1.053.351-2.47.558-4.008.558-1.537 0-2.954-.207-4.008-.558-.523-.174-.991-.396-1.34-.67-.34-.27-.652-.66-.652-1.172 0-.719.6-1.2 1.153-1.492.606-.319 1.425-.56 2.349-.713a.6.6 0 0 1 .69.494Z" fill="#454C5C"/>
</svg>