<svg width="20" height="20" viewBox="0 0 20 20" fill="none" xmlns="http://www.w3.org/2000/svg">
  <path d="M.4 1.775C.4 1.015 1.03.4 1.81.4h16.38c.779 0 1.41.616 1.41 1.375v16.45c0 .76-.631 1.375-1.41 1.375H1.81C1.03 19.6.4 18.984.4 18.225V1.775ZM6.33 16.473v-8.67h-2.88v8.67h2.88Zm-1.44-9.855c1.005 0 1.63-.664 1.63-1.497-.018-.851-.624-1.498-1.61-1.498-.987 0-1.631.648-1.631 1.498 0 .833.625 1.497 1.592 1.497h.02Zm5.89 9.855V11.63c0-.26.02-.519.096-.703.208-.518.682-1.054 1.478-1.054 1.043 0 1.46.794 1.46 1.96v4.639h2.88V11.5c0-2.664-1.42-3.902-3.316-3.902-1.529 0-2.214.84-2.598 1.431v.03h-.02l.02-.03V7.803h-2.88c.036.813 0 8.67 0 8.67h2.88Z" fill="#454C5C"/>
</svg>